<svg width="28" height="28" viewBox="0 0 28 28" fill="none" xmlns="http://www.w3.org/2000/svg">
<path d="M11.9951 4.61683L2.06424 21.0199C1.85949 21.3707 1.75116 21.7684 1.75001 22.1736C1.74886 22.5787 1.85495 22.977 2.05771 23.329C2.26047 23.6809 2.55284 23.9742 2.90574 24.1797C3.25863 24.3851 3.65974 24.4955 4.06917 24.5H23.9308C24.3403 24.4955 24.7414 24.3851 25.0943 24.1797C25.4472 23.9742 25.7395 23.6809 25.9423 23.329C26.1451 22.977 26.2511 22.5787 26.25 22.1736C26.2488 21.7684 26.1405 21.3707 25.9358 21.0199L16.0049 4.61683C15.7959 4.2759 15.5016 3.99402 15.1504 3.7984C14.7992 3.60277 14.403 3.5 14 3.5C13.597 3.5 13.2008 3.60277 12.8496 3.7984C12.4984 3.99402 12.2041 4.2759 11.9951 4.61683V4.61683Z" stroke="#CA6606" stroke-width="2" stroke-linecap="round" stroke-linejoin="round"/>
<path d="M14 10.5781V15.2183" stroke="#CA6606" stroke-width="2" stroke-linecap="round" stroke-linejoin="round"/>
<path d="M14 19.8594H14.0116" stroke="#CA6606" stroke-width="2" stroke-linecap="round" stroke-linejoin="round"/>
</svg>
