<svg width="28" height="28" viewBox="0 0 28 28" fill="none" xmlns="http://www.w3.org/2000/svg">
<path d="M20.4167 9.80112C20.4167 8.12996 19.7406 6.52724 18.5373 5.34555C17.3339 4.16387 15.7018 3.5 14 3.5C12.2982 3.5 10.6661 4.16387 9.46273 5.34555C8.25937 6.52724 7.58333 8.12996 7.58333 9.80112C7.58333 17.1524 4.375 19.2528 4.375 19.2528H23.625C23.625 19.2528 20.4167 17.1524 20.4167 9.80112Z" stroke="#1C1D1F" stroke-width="2" stroke-linecap="round" stroke-linejoin="round"/>
<path d="M15.8507 23.4531C15.6626 23.7714 15.3928 24.0356 15.0681 24.2193C14.7434 24.4029 14.3752 24.4996 14.0005 24.4996C13.6258 24.4996 13.2577 24.4029 12.933 24.2193C12.6083 24.0356 12.3384 23.7714 12.1504 23.4531" stroke="#1C1D1F" stroke-width="2" stroke-linecap="round" stroke-linejoin="round"/>
</svg>
