<svg width="36" height="34" viewBox="0 0 36 34" fill="none" xmlns="http://www.w3.org/2000/svg">
<path d="M21.0836 20.0833C20.6841 20.512 20.2024 20.8559 19.6671 21.0944C19.1319 21.3329 18.554 21.4611 17.9681 21.4715C17.3822 21.4818 16.8002 21.374 16.2569 21.1546C15.7135 20.9351 15.22 20.6085 14.8056 20.1941C14.3912 19.7797 14.0646 19.2861 13.8451 18.7428C13.6256 18.1994 13.5179 17.6175 13.5282 17.0315C13.5385 16.4456 13.6668 15.8678 13.9053 15.3326C14.1438 14.7973 14.4876 14.3155 14.9164 13.916M26.64 25.6397C24.1536 27.535 21.126 28.5849 18 28.636C7.81818 28.636 2 16.9997 2 16.9997C3.80929 13.6279 6.31874 10.682 9.36 8.35968L26.64 25.6397ZM14.9455 5.71241C15.9467 5.47805 16.9717 5.3609 18 5.36332C28.1818 5.36332 34 16.9997 34 16.9997C33.1171 18.6515 32.0641 20.2066 30.8582 21.6397L14.9455 5.71241Z" stroke="#1C1D1F" stroke-width="2"/>
<path d="M2 1L34 33" stroke="#1C1D1F" stroke-width="2"/>
</svg>
