<svg width="96" height="24" viewBox="0 0 96 24" fill="none" xmlns="http://www.w3.org/2000/svg">
<path fill-rule="evenodd" clip-rule="evenodd" d="M8.51662 5.66906C6.10078 5.66906 4.10337 6.46702 2.70203 7.98519V0H0V23.4205H2.70203V21.1284C4.10337 22.6466 6.10078 23.4446 8.51662 23.4446C13.6483 23.4446 16.4747 20.2972 16.4747 14.5577C16.4747 8.81833 13.6483 5.66906 8.51662 5.66906ZM13.7055 14.5568C13.7053 18.8737 11.8934 21.0636 8.31925 21.0636C3.67705 21.0636 2.70203 17.5459 2.70203 14.5837C2.70203 10.368 4.69746 8.04999 8.31925 8.04999C11.8934 8.04999 13.7053 10.2381 13.7055 14.5568ZM32.5822 11.6121C34.8461 10.5679 36.0382 8.85166 36.0382 6.62624C36.0458 5.77978 35.847 4.9429 35.457 4.17953C35.0671 3.41616 34.4962 2.7465 33.7882 2.22171C32.2763 1.07753 30.119 0.472113 27.5492 0.472113C24.9795 0.472113 22.8242 1.08123 21.3162 2.22171C20.6074 2.74613 20.0359 3.41562 19.6452 4.17902C19.2546 4.94241 19.0551 5.77948 19.0622 6.62624C19.0622 8.87572 20.2465 10.6031 22.5024 11.6455C19.7787 12.723 18.4524 14.5596 18.4524 17.246C18.4524 19.2104 19.2418 20.8766 20.7379 22.069C22.3445 23.3501 24.638 24 27.5492 24C34.2599 24 36.6481 20.5119 36.6481 17.246C36.6481 14.5355 35.3178 12.6897 32.5822 11.6121ZM27.5492 12.96C31.7158 12.96 33.7507 14.3874 33.7507 17.3108C33.7507 21.2525 29.0138 21.5691 27.5591 21.5691C21.8156 21.5691 21.3675 18.3161 21.3675 17.3108C21.3577 14.3874 23.3827 12.96 27.5492 12.96ZM21.9695 6.68364C21.9695 4.32122 24.0558 2.91044 27.5492 2.91044C31.0427 2.91044 33.1309 4.32122 33.1309 6.68364C33.1309 8.46841 31.6684 10.5513 27.5492 10.5513C23.4301 10.5513 21.9695 8.47396 21.9695 6.68919V6.68364ZM41.0002 8.30363C42.6522 6.53737 45.0759 5.61166 48.0148 5.61166C53.6636 5.61166 57.313 9.20898 57.317 14.7744C57.317 17.3978 56.5176 19.6547 55.0057 21.2858C53.3478 23.0613 50.9418 24 48.0187 24C42.2614 24 38.685 20.4656 38.685 14.7744C38.685 12.1601 39.4745 9.92363 41.0002 8.30363ZM48.0148 20.2805C52.2386 20.2805 52.807 17.5163 52.807 14.8114C52.807 10.9234 51.4432 9.34228 48.0148 9.34228C44.5864 9.34228 43.1871 10.9234 43.1871 14.8114C43.1871 19.6306 45.6266 20.2805 48.0148 20.2805ZM69.2264 5.35432C66.9606 5.35432 65.1309 6.09488 63.773 7.5501V5.36913H59.3558V23.4538H63.773V12.8655C63.7746 11.8987 64.1847 10.9718 64.9136 10.2881C65.6424 9.60445 66.6305 9.21971 67.6613 9.21824C69.0764 9.21824 70.2271 9.72738 70.8922 10.6605C71.3442 11.2159 71.5752 11.9861 71.5752 12.9396V23.4446H75.9884V12.2897C75.9884 7.68711 73.7166 5.35432 69.2264 5.35432ZM87.2367 5.61166C89.8755 5.61166 92.0802 6.39667 93.6118 7.87781C95.175 9.38857 96 11.5992 96 14.2726C96 14.5838 95.9045 15.3728 95.8544 15.7876C95.8365 15.9355 95.8243 16.0359 95.8243 16.05L95.8026 16.2129H82.5491C82.9122 19.1048 84.3965 20.4008 87.3373 20.4008C89.0584 20.4008 90.2584 19.9824 91.0045 19.1196L91.0637 19.0511H95.7059L95.6131 19.2974C94.0934 23.389 89.7157 24 87.2426 24C81.4813 24 78.043 20.5508 78.043 14.7744C78.043 12.1639 78.8325 9.92918 80.3286 8.30919C81.951 6.53737 84.3432 5.61166 87.2367 5.61166ZM87.2702 9.21083C84.5938 9.21083 83.1688 10.2735 82.6774 12.6452H91.5196C91.1861 10.3032 89.8361 9.21083 87.2702 9.21083Z" fill="#1C1D1F"/>
</svg>
