<svg width="16" height="16" viewBox="0 0 16 16" fill="none" xmlns="http://www.w3.org/2000/svg">
<path d="M8 15C11.866 15 15 11.866 15 8C15 4.13401 11.866 1 8 1C4.13401 1 1 4.13401 1 8C1 11.866 4.13401 15 8 15Z" stroke="#0D5CA7" stroke-width="1.6" stroke-linecap="round" stroke-linejoin="round"/>
<path d="M5.96338 5.89996C6.12795 5.43213 6.45279 5.03763 6.88035 4.78635C7.30791 4.53507 7.81061 4.44322 8.2994 4.52706C8.7882 4.6109 9.23155 4.86503 9.55093 5.24443C9.87032 5.62383 10.0451 6.10402 10.0444 6.59996C10.0444 7.99996 7.94438 8.69996 7.94438 8.69996" stroke="#0D5CA7" stroke-width="1.6" stroke-linecap="round" stroke-linejoin="round"/>
<path d="M8 11.5H8.006" stroke="#0D5CA7" stroke-width="1.6" stroke-linecap="round" stroke-linejoin="round"/>
</svg>
